<svg width="281" height="64" viewBox="0 0 281 64" fill="none" xmlns="http://www.w3.org/2000/svg">
<path d="M19.4941 30.1823C21.727 30.1823 23.537 31.9924 23.5371 34.2253C23.5371 36.4581 21.727 38.2682 19.4941 38.2682C17.2613 38.2682 15.4512 36.4581 15.4512 34.2253C15.4512 31.9925 17.2614 30.1824 19.4941 30.1823Z" fill="#008DE3"/>
<path d="M44.7188 30.1823C46.9516 30.1823 48.7617 31.9924 48.7617 34.2253C48.7617 36.4581 46.9516 38.2682 44.7188 38.2682C42.4859 38.2682 40.6758 36.4581 40.6758 34.2253C40.6758 31.9925 42.486 30.1824 44.7188 30.1823Z" fill="#008DE3"/>
<path fill-rule="evenodd" clip-rule="evenodd" d="M44.1536 18.1966C53.4696 18.1967 61.0324 25.7027 61.125 34.9967C61.1213 35.4814 61.1058 35.9633 61.0788 36.4421C60.2449 51.2303 48.418 63.0793 33.6393 63.9486C33.1159 63.9794 32.5884 63.9965 32.0579 63.9994L31.9805 64H31.8958C16.3138 64 3.5794 51.8073 2.71289 36.4421C2.68592 35.9634 2.67033 35.4814 2.66667 34.9967C2.71822 29.8214 5.08611 25.2002 8.7832 22.1211C9.01054 21.9318 9.24333 21.7484 9.48047 21.571C9.79426 21.3362 10.1166 21.1121 10.4466 20.8991C10.6124 20.7921 10.7802 20.6879 10.9499 20.5866C11.8603 20.043 12.8256 19.5817 13.8359 19.2142C14.6118 18.932 15.4144 18.7046 16.2383 18.5371C17.3368 18.3137 18.4742 18.1966 19.6387 18.1966C24.4571 18.1967 28.8065 20.2049 31.8958 23.4297C34.9853 20.2048 39.3351 18.1966 44.1536 18.1966ZM31.9154 38.6667C30.339 42.2927 29.0877 43.7435 26.582 45.6667C29.0918 47.6193 30.4114 48.8747 31.9154 52.6667C33.4194 48.8747 34.7389 47.6193 37.2487 45.6667C34.743 43.7435 33.4918 42.2927 31.9154 38.6667ZM19.3184 23.4147C13.348 23.4148 8.50788 28.2549 8.50781 34.2253C8.50781 40.1957 13.3479 45.0357 19.3184 45.0358C25.2889 45.0358 30.1289 40.1958 30.1289 34.2253C30.1288 28.2548 25.2888 23.4147 19.3184 23.4147ZM44.543 23.4147C38.5726 23.4148 33.7325 28.2549 33.7324 34.2253C33.7324 40.1957 38.5725 45.0357 44.543 45.0358C50.5135 45.0358 55.3535 40.1958 55.3535 34.2253C55.3535 28.2548 50.5134 23.4147 44.543 23.4147Z" fill="#008DE3"/>
<path d="M64 12.6667L60.6667 9.33333L57.3333 12.6667V4.66667H51.7936V14.6126C49.4974 13.4531 46.9018 12.8002 44.1536 12.8001C39.3351 12.8001 34.9853 14.8083 31.8958 18.0332C28.8065 14.8084 24.4571 12.8002 19.6387 12.8001C18.4742 12.8001 17.3368 12.9173 16.2383 13.1406C15.4144 13.3081 14.6118 13.5355 13.8359 13.8177C13.2057 14.047 12.5928 14.3125 12 14.612V4.66667H0V0H64V12.6667Z" fill="#008DE3"/>
<path d="M72.2824 48.3007V16.5971H93.6926V22.5901H79.4191V28.8119H92.0914V34.6677H79.4191V42.3077H94.7448V48.3007H72.2824Z" fill="#0350AB"/>
<path d="M103.413 36.0859C103.413 38.1903 103.886 39.883 104.831 41.164C105.777 42.4449 107.18 43.0854 109.04 43.0854C109.65 43.0854 110.214 43.0701 110.733 43.0396C111.251 42.9786 111.678 42.9176 112.014 42.8567V30.4589C111.587 30.1844 111.022 29.9556 110.321 29.7726C109.65 29.5896 108.964 29.4981 108.262 29.4981C105.029 29.4981 103.413 31.6941 103.413 36.0859ZM118.83 47.523C118.22 47.706 117.519 47.889 116.726 48.072C115.933 48.2245 115.094 48.3617 114.21 48.4837C113.356 48.6057 112.471 48.6972 111.556 48.7582C110.672 48.8497 109.818 48.8954 108.994 48.8954C107.012 48.8954 105.243 48.6057 103.688 48.0262C102.132 47.4467 100.821 46.6233 99.7531 45.5558C98.6857 44.4578 97.8622 43.1464 97.2827 41.6214C96.7338 40.066 96.4593 38.3276 96.4593 36.4061C96.4593 34.4542 96.7033 32.7005 97.1912 31.1451C97.6792 29.5591 98.3807 28.2172 99.2957 27.1192C100.211 26.0213 101.324 25.1825 102.635 24.6031C103.977 24.0236 105.502 23.7339 107.21 23.7339C108.156 23.7339 108.994 23.8253 109.726 24.0083C110.489 24.1913 111.251 24.4506 112.014 24.7861V13.898L118.83 12.8V47.523Z" fill="#0350AB"/>
<path d="M144.324 47.4772C143.165 47.8127 141.671 48.1177 139.841 48.3922C138.011 48.6972 136.089 48.8497 134.077 48.8497C132.033 48.8497 130.325 48.5752 128.953 48.0262C127.611 47.4772 126.543 46.7148 125.75 45.7388C124.957 44.7323 124.393 43.5429 124.058 42.1704C123.722 40.798 123.554 39.2883 123.554 37.6413V24.2371H130.371V36.8179C130.371 39.0138 130.661 40.5997 131.24 41.5757C131.82 42.5517 132.902 43.0396 134.488 43.0396C134.976 43.0396 135.495 43.0244 136.044 42.9939C136.593 42.9329 137.081 42.8719 137.508 42.8109V24.2371H144.324V47.4772Z" fill="#0350AB"/>
<path d="M149.064 18.2441L155.881 17.1461V24.2371H164.07V29.9099H155.881V38.3733C155.881 39.8068 156.125 40.9505 156.613 41.8044C157.131 42.6584 158.153 43.0854 159.678 43.0854C160.41 43.0854 161.157 43.0244 161.92 42.9024C162.713 42.7499 163.429 42.5517 164.07 42.3077L165.031 47.6145C164.207 47.95 163.292 48.2397 162.286 48.4837C161.279 48.7277 160.044 48.8497 158.58 48.8497C156.72 48.8497 155.18 48.6057 153.96 48.1177C152.74 47.5992 151.764 46.8978 151.032 46.0133C150.3 45.0983 149.781 44.0004 149.476 42.7194C149.202 41.4385 149.064 40.0203 149.064 38.4648V18.2441Z" fill="#0350AB"/>
<path d="M176.493 43.5429C177.164 43.5429 177.805 43.5276 178.415 43.4971C179.025 43.4666 179.512 43.4209 179.878 43.3599V38.1903C179.604 38.1293 179.192 38.0683 178.643 38.0073C178.094 37.9463 177.591 37.9158 177.134 37.9158C176.493 37.9158 175.883 37.9616 175.304 38.0531C174.755 38.1141 174.267 38.2513 173.84 38.4648C173.413 38.6783 173.077 38.968 172.833 39.334C172.589 39.7 172.467 40.1575 172.467 40.7065C172.467 41.7739 172.818 42.5212 173.519 42.9481C174.251 43.3446 175.243 43.5429 176.493 43.5429ZM175.944 23.5966C177.957 23.5966 179.634 23.8253 180.976 24.2828C182.318 24.7403 183.386 25.396 184.179 26.25C185.002 27.104 185.582 28.1409 185.917 29.3609C186.253 30.5808 186.42 31.9381 186.42 33.4325V47.6145C185.445 47.828 184.087 48.072 182.349 48.3465C180.61 48.6514 178.506 48.8039 176.036 48.8039C174.48 48.8039 173.062 48.6667 171.781 48.3922C170.531 48.1177 169.448 47.6755 168.533 47.0655C167.618 46.425 166.916 45.6015 166.428 44.5951C165.94 43.5886 165.696 42.3534 165.696 40.8895C165.696 39.4865 165.971 38.2971 166.52 37.3211C167.099 36.3451 167.862 35.5674 168.807 34.9879C169.753 34.4085 170.836 33.9967 172.056 33.7527C173.275 33.4782 174.541 33.341 175.853 33.341C176.737 33.341 177.515 33.3867 178.186 33.4782C178.887 33.5392 179.452 33.6307 179.878 33.7527V33.1123C179.878 31.9533 179.528 31.0231 178.826 30.3216C178.125 29.6201 176.905 29.2694 175.166 29.2694C174.007 29.2694 172.864 29.3609 171.735 29.5439C170.607 29.6964 169.631 29.9251 168.807 30.2301L167.938 24.7403C168.335 24.6183 168.823 24.4963 169.402 24.3743C170.012 24.2218 170.668 24.0998 171.369 24.0083C172.071 23.8863 172.803 23.7948 173.565 23.7339C174.358 23.6424 175.151 23.5966 175.944 23.5966Z" fill="#0350AB"/>
<path d="M197.971 48.3007H191.155V24.2371H197.971V48.3007ZM198.612 17.2833C198.612 18.5338 198.2 19.525 197.377 20.257C196.584 20.9585 195.638 21.3092 194.54 21.3092C193.442 21.3092 192.481 20.9585 191.658 20.257C190.865 19.525 190.469 18.5338 190.469 17.2833C190.469 16.0329 190.865 15.0569 191.658 14.3554C192.481 13.6235 193.442 13.2575 194.54 13.2575C195.638 13.2575 196.584 13.6235 197.377 14.3554C198.2 15.0569 198.612 16.0329 198.612 17.2833Z" fill="#0350AB"/>
<path d="M202.949 25.0606C204.108 24.7251 205.603 24.4201 207.433 24.1456C209.262 23.8406 211.184 23.6881 213.197 23.6881C215.24 23.6881 216.933 23.9626 218.275 24.5116C219.647 25.0301 220.73 25.7773 221.523 26.7532C222.316 27.7292 222.88 28.8882 223.216 30.2301C223.551 31.5721 223.719 33.0665 223.719 34.7134V48.3007H216.902V35.5369C216.902 33.341 216.613 31.7856 216.033 30.8706C215.454 29.9556 214.371 29.4981 212.785 29.4981C212.297 29.4981 211.779 29.5286 211.23 29.5896C210.681 29.6201 210.193 29.6659 209.766 29.7269V48.3007H202.949V25.0606Z" fill="#0350AB"/>
<path d="M227.316 36.4519C227.316 34.317 227.636 32.4565 228.276 30.8706C228.947 29.2541 229.816 27.9122 230.884 26.8447C231.951 25.7773 233.171 24.9691 234.544 24.4201C235.947 23.8711 237.38 23.5966 238.844 23.5966C242.26 23.5966 244.959 24.6488 246.942 26.7532C248.924 28.8272 249.915 31.8923 249.915 35.9487C249.915 36.3451 249.9 36.7874 249.869 37.2754C249.839 37.7328 249.808 38.1446 249.778 38.5106H234.315C234.468 39.9135 235.123 41.0267 236.282 41.8502C237.441 42.6737 238.997 43.0854 240.949 43.0854C242.199 43.0854 243.419 42.9786 244.608 42.7652C245.828 42.5212 246.82 42.2314 247.582 41.8959L248.497 47.4315C248.131 47.6145 247.643 47.7975 247.033 47.9805C246.423 48.1635 245.737 48.316 244.974 48.4379C244.242 48.5904 243.449 48.7124 242.596 48.8039C241.742 48.8954 240.888 48.9412 240.034 48.9412C237.868 48.9412 235.977 48.6209 234.361 47.9805C232.775 47.34 231.448 46.4708 230.381 45.3728C229.344 44.2444 228.566 42.9176 228.048 41.3927C227.56 39.8678 227.316 38.2208 227.316 36.4519ZM243.327 33.8442C243.297 33.2648 243.19 32.7005 243.007 32.1515C242.855 31.6026 242.595 31.1146 242.23 30.6876C241.894 30.2606 241.452 29.9099 240.903 29.6354C240.384 29.3609 239.729 29.2237 238.936 29.2237C238.173 29.2237 237.517 29.3609 236.968 29.6354C236.419 29.8794 235.962 30.2149 235.596 30.6418C235.23 31.0688 234.94 31.5721 234.727 32.1515C234.544 32.7005 234.407 33.2648 234.315 33.8442H243.327Z" fill="#0350AB"/>
<path d="M268.248 30.2759C267.638 30.1234 266.921 29.9709 266.098 29.8184C265.275 29.6354 264.39 29.5439 263.445 29.5439C263.018 29.5439 262.499 29.5896 261.889 29.6811C261.31 29.7421 260.867 29.8184 260.562 29.9099V48.3007H253.746V25.518C254.966 25.091 256.399 24.6946 258.046 24.3286C259.724 23.9321 261.584 23.7339 263.628 23.7339C263.994 23.7339 264.436 23.7643 264.954 23.8253C265.473 23.8558 265.991 23.9168 266.51 24.0083C267.028 24.0693 267.547 24.1608 268.065 24.2828C268.584 24.3743 269.026 24.4963 269.392 24.6488L268.248 30.2759Z" fill="#0350AB"/>
<rect x="270.667" y="11.6667" width="10" height="10" rx="5" stroke="#0350AB" stroke-width="0.666667"/>
<path d="M275.453 14.2933C276.147 14.2933 276.678 14.4178 277.047 14.6667C277.416 14.9111 277.6 15.2933 277.6 15.8133C277.6 16.1378 277.524 16.4022 277.373 16.6067C277.227 16.8067 277.013 16.9645 276.733 17.08C276.827 17.1956 276.924 17.3289 277.027 17.48C277.129 17.6267 277.229 17.7822 277.327 17.9467C277.429 18.1067 277.527 18.2756 277.62 18.4533C277.713 18.6267 277.8 18.7978 277.88 18.9667H276.713C276.629 18.8156 276.542 18.6622 276.453 18.5067C276.369 18.3511 276.28 18.2 276.187 18.0533C276.098 17.9067 276.009 17.7689 275.92 17.64C275.831 17.5067 275.742 17.3867 275.653 17.28H275.14V18.9667H274.1V14.4133C274.327 14.3689 274.56 14.3378 274.8 14.32C275.044 14.3022 275.262 14.2933 275.453 14.2933ZM275.513 15.18C275.438 15.18 275.369 15.1822 275.307 15.1867C275.249 15.1911 275.193 15.1956 275.14 15.2V16.4533H275.433C275.824 16.4533 276.104 16.4045 276.273 16.3067C276.442 16.2089 276.527 16.0422 276.527 15.8067C276.527 15.58 276.44 15.42 276.267 15.3267C276.098 15.2289 275.847 15.18 275.513 15.18Z" fill="#0350AB"/>
</svg>
